<?xml version="1.0" encoding="UTF-8" standalone="no"?>
<!DOCTYPE svg PUBLIC "-//W3C//DTD SVG 1.1//EN" "http://www.w3.org/Graphics/SVG/1.1/DTD/svg11.dtd">
<svg width="100%" height="100%" viewBox="0 0 500 120" version="1.1" xmlns="http://www.w3.org/2000/svg" xmlns:xlink="http://www.w3.org/1999/xlink" xml:space="preserve" xmlns:serif="http://www.serif.com/" style="fill-rule:evenodd;clip-rule:evenodd;stroke-linejoin:round;stroke-miterlimit:2;" role="img" aria-label="Sampo">
    <title>Sampo</title>
    <path d="M500,8L500,112C500,116.415 496.415,120 492,120L8,120C3.585,120 0,116.415 0,112L0,8C0,3.585 3.585,0 8,0L492,0C496.415,0 500,3.585 500,8Z" style="fill:rgb(19,23,34);"/>
    <g transform="matrix(1,0,0,1,30,20)">
        <path d="M20,10L60,10L45,35L5,35L20,10Z" style="fill:rgb(0,229,255);fill-opacity:0.8;fill-rule:nonzero;"/>
        <path d="M15,42L65,42L55,62L25,62L15,42Z" style="fill:rgb(0,229,255);fill-rule:nonzero;"/>
        <path d="M30,70L70,70L55,95L15,95L30,70Z" style="fill:rgb(0,178,204);fill-rule:nonzero;"/>
        <circle cx="65" cy="52" r="5" style="fill:rgb(255,215,0);"/>
    </g>
    <g transform="matrix(1.755631,0,0,1.755631,137.494642,89.901638)">
        <text x="0px" y="0px" style="font-family:'Helvetica-Bold', 'Helvetica';font-weight:700;font-size:48px;fill:white;">S<tspan x="32.976px 68.6px 109.544px 142.52px " y="0px 0px 0px 0px ">AMPO</tspan></text>
    </g>
</svg>
